<svg xmlns="http://www.w3.org/2000/svg" viewBox="0 0 576 512" fill="#3f83f8"><!--!Font Awesome Free 6.7.2 by @fontawesome - https://fontawesome.com License - https://fontawesome.com/license/free Copyright 2024 Fonticons, Inc.--><path d="M573.2 402.7l-139.8-320C428.4 71.3 417.6 64 405.7 64h-97.6l2.5 23.2c.5 4.7-3.2 8.8-8 8.8h-29.2c-4.8 0-8.5-4.1-8-8.8L267.9 64h-97.6c-11.9 0-22.8 7.3-27.7 18.7L2.8 402.7C-6.5 423.9 8.3 448 30.5 448h196.8l10.3-97.7c.9-8.1 7.7-14.3 15.9-14.3h68.8c8.2 0 15.1 6.2 15.9 14.3L348.6 448h196.8c22.2 0 37-24.1 27.7-45.3zM260.4 135.2a8 8 0 0 1 8-7.2h39.3c4.1 0 7.5 3.1 8 7.2l4.6 43.6c.8 7.1-4.8 13.3-11.9 13.3h-40.5c-7.1 0-12.7-6.2-11.9-13.3l4.6-43.6zM315.6 304h-55.3c-9.5 0-16.9-8.2-15.9-17.7l5.1-48c.9-8.1 7.7-14.3 15.9-14.3h45.2c8.2 0 15.1 6.2 15.9 14.3l5.1 48c1 9.5-6.4 17.7-15.9 17.7z"/></svg>